<?xml version="1.0" encoding="utf-8"?>
<!-- Generator: Adobe Illustrator 24.3.0, SVG Export Plug-In . SVG Version: 6.00 Build 0)  -->
<svg version="1.1" id="Layer_1" xmlns="http://www.w3.org/2000/svg" xmlns:xlink="http://www.w3.org/1999/xlink" x="0px" y="0px"
	 viewBox="0 0 160 120" style="enable-background:new 0 0 160 120;" xml:space="preserve">
<style type="text/css">
	.st0{fill:#2C659D;}
	.st1{fill:#5697D1;}
	.st2{fill:#BEDAAE;}
	.st3{fill:#AECFE8;}
	.st4{fill:#94B0D9;}
	.st5{fill:#39B8D7;}
	.st6{fill:none;}
	.st7{fill:#EFAF8A;}
	.st8{fill:#54BDD8;}
	.st9{fill:#EFB192;}
	.st10{fill:#F4C8AB;}
	.st11{fill:#DC9E88;}
	.st12{fill:#6E5A4F;}
	.st13{fill:#7C6457;}
	.st14{fill:#60493C;}
	.st15{fill:#FFFFFF;}
	.st16{fill:#2C75B8;}
	.st17{fill:#010101;}
	.st18{fill:#89494B;}
	.st19{opacity:0.2;}
	.st20{fill:#68BB5A;}
	.st21{enable-background:new    ;}
</style>
<g>
	<g>
		<path class="st0" d="M90.138,118.126c-4.942,1.891-9.758,2.42-10.625,1.273l-0.026,0.007
			c-12.114-10.412-28.021-16.845-43.414-16.845c-15.079,0-25.722,6.339-32.663,16.547H3.374c-0.101,0.285-0.852,0.584-1.689,0.584
			C0.742,119.692,0,119.5,0,119.059c0-0.029,0.003-0.056,0.011-0.082c0-0.011,0-0.028,0.008-0.039
			c8.254-17.926,23.51-29.423,45.523-29.423c18.658,0,38.728,8.566,53.167,22.1l-0.024,0.009c0.129,0.103,0.224,0.222,0.273,0.363
			C99.445,113.338,95.628,116.031,90.138,118.126z"/>
		<path class="st1" d="M80.063,95.482c-0.134-0.071-1.386-0.687-2.209-1.106c-1.506-0.758-3.654-1.648-6.358-2.656
			c-0.33-0.127-0.669-0.248-1.007-0.373c-0.587-0.213-1.2-0.436-1.831-0.663c-3.856-1.371-8.311-2.522-13.366-3.209
			c-0.86-0.123-1.857-0.23-2.957-0.319c-2.089-0.204-4.18-0.31-6.24-0.31c-1.041,0-2.07,0.029-3.07,0.076
			c-1.04,0.038-2.029,0.102-2.949,0.195c-5.965,0.603-9.354,1.759-10.378,2.119c-0.615,0.215-1.308,0.106-1.38-0.442
			c-0.15-1.021,0.229-3.26,0.419-4.641c0.795-6.055,1.18-12.822-0.77-19.869c-1.944-7.047-6.861-13.654-8.215-15.747
			c-1.517-2.303-0.474-3.108,1.249-3.431c7.59-1.421,23.574,2.8,31.555,6.482c9.488,4.375,27.161,18.36,28.511,42.335
			C81.158,95.452,80.795,95.904,80.063,95.482z"/>
	</g>
	<g>
		<path class="st2" d="M160,37c0,8.457-2.96,16.491-7.823,22.623C145.412,68.292,134.84,70.617,123,70.617
			c-11.841,0-22.412-2.326-29.177-10.994C88.96,53.491,86,45.456,86,37c0-20.508,16.491-37,37-37S160,16.491,160,37z"/>
		<path class="st3" d="M123.001,53.069v1.691h-16.279c-3.172,0,1.48,2.536,1.48,5.708l0.211,10.782
			c4.44,1.902,9.303,2.96,14.588,2.96c11.839,0,22.412-5.708,29.177-14.377c-4.229-3.806-11.417-6.765-19.451-6.765L123.001,53.069
			L123.001,53.069z"/>
		<path class="st4" d="M93.824,59.622c6.765,8.669,17.336,14.377,29.177,14.377l0,0v-20.93h-9.726
			C105.03,53.069,97.842,55.816,93.824,59.622z"/>
		<path class="st5" d="M147.103,62.794"/>
		<line class="st6" x1="132.515" y1="53.069" x2="132.727" y2="53.069"/>
		<path class="st7" d="M123.001,61.102L123.001,61.102L123.001,61.102z"/>
		<path class="st8" d="M98.899,62.794"/>
		<path class="st9" d="M123.001,43.977c0,0.211-7.612,0-7.612,0.211c0,0.845,3.383,1.691,3.383,2.96c0,2.96-2.114,4.651-3.595,5.92
			h-1.691h5.074c1.902,0,4.44,8.035,4.44,8.035l0,0c0,0,7.611-8.035,9.514-8.035l0,0c-1.48-1.268-1.902-2.96-1.902-5.92
			c0-1.48,0-2.538,0-3.383"/>
		<path class="st10" d="M123.001,14.166c-13.32,0.423-9.514,13.954-9.514,13.954s-1.268,0.634-1.268,3.172
			c0.423,6.342,2.536,3.595,2.96,6.554c0.423,3.172,1.268,4.44,1.902,5.497h-1.691c2.114,2.748,2.96,4.44,7.612,4.44
			c4.651,0,7.188-1.691,9.303-4.44l0,0c0.634-1.057,1.48-2.326,1.902-5.497c0.423-2.748,2.538,0,2.96-6.554
			c0-2.538-1.268-3.172-1.268-3.172s-2.538-8.88-2.325-11.841"/>
		<path class="st11" d="M123.001,44.4c0,0.211-7.612-0.423-7.612-0.211c0,0.845,0,1.691,0,2.96c0,2.96-0.423,4.651-1.902,5.92l0,0
			c1.902,0,9.514,8.035,9.514,8.035"/>
		<path class="st9" d="M123.001,14.166c-13.32,0.423-12.897,13.954-12.897,13.954s-1.268,0.634-1.268,3.172
			c0.423,6.342,2.536,3.595,2.96,6.554c0.423,3.172,1.268,4.44,1.902,5.497l0,0c2.114,2.748,4.651,4.44,9.303,4.44V14.166z"/>
		<path class="st12" d="M114.544,27.062c0,0,0,0,0.211,0s0.423,0,0.634-0.211c0.211,0,0.211,0,0.423,0c0.212,0,0.423,0,0.634,0
			c0.423,0,0.845,0,1.268,0c0.423,0,0.845,0,1.268,0c0.211,0,0.423,0,0.634,0c0.211,0,0.423,0,0.423,0c0.211,0,0.634,0,0.634,0
			c0.211,0,0.211,0,0.211,0c0.211,0,0.211,0.211,0.211,0.423c0,0.211-0.211,0.211-0.423,0.211l0,0c0,0,0,0-0.211,0s-0.423,0-0.634,0
			c-0.211,0-0.211,0-0.423,0c-0.211,0-0.423,0-0.634,0c-0.423,0-0.845,0-1.057,0c-0.423,0-0.845,0-1.057,0c-0.211,0-0.423,0-0.634,0
			c-0.211,0-0.423,0-0.423,0c-0.211,0-0.634,0-0.634,0c-0.211,0-0.211,0-0.211,0c-0.211,0-0.423-0.211-0.423-0.423
			C114.332,27.274,114.332,27.062,114.544,27.062"/>
		<path class="st12" d="M131.459,27.909c0,0,0,0-0.211,0s-0.423,0-0.634,0s-0.211,0-0.423,0c-0.211,0-0.423,0-0.423,0
			c-0.423,0-0.846,0-1.057,0c-0.423,0-0.846,0-1.057,0s-0.423,0-0.634,0c-0.211,0-0.423,0-0.423,0c-0.211,0-0.634,0-0.634,0
			c-0.211,0-0.211,0-0.211,0l0,0c-0.211,0-0.423-0.211-0.423-0.423s0.211-0.211,0.211-0.423c0,0,0,0,0.211,0s0.423,0,0.634,0
			c0.211,0,0.211,0,0.423,0c0.211,0,0.423,0,0.634,0c0.423,0,0.845,0,1.268,0c0.423,0,0.846,0,1.268,0c0.211,0,0.423,0,0.634,0
			s0.423,0,0.423,0c0.211,0,0.634,0,0.634,0.211c0.211,0,0.211,0,0.211,0c0.211,0,0.211,0.211,0.211,0.423
			C131.67,27.698,131.459,27.909,131.459,27.909"/>
		<path class="st13" d="M131.881,11.417c-1.057-0.634-1.057-0.634-2.538-1.057c-0.211-0.845-2.325-1.48-3.806-1.48
			c-0.634,0-1.48,0-2.325,0c-2.96,0.211-5.708,1.268-8.035,2.749c-3.806,2.748-4.863,7.399-4.651,9.726
			c0.211,2.96,0.423,6.765,0.423,6.765l0.634,5.497c0-15.645,1.268-15.645,11.841-15.645c10.571,0,11.839,0,11.839,15.645
			l1.268-5.497c0,0,0.634-3.806,0.846-6.765C136.954,18.818,135.897,14.166,131.881,11.417"/>
		<path class="st14" d="M123.001,8.881c-2.96,0.211-6.977,1.268-9.303,2.749c-3.595,2.96-4.651,7.399-4.44,9.726
			c0.211,2.96,0.845,6.765,0.845,6.765l1.268,5.497c0-15.645,1.268-15.645,11.839-15.645"/>
		<path class="st10" d="M123.001,28.543c0,2.96-1.902,5.92-1.902,7.823c0,0.845,1.48,1.268,1.902,1.268"/>
		<path class="st15" d="M128.287,28.543c-1.057,0-1.902,0.423-2.749,1.057c0.634,0.634,1.691,1.057,2.749,1.057
			c1.057,0,1.902-0.423,2.748-1.057C130.189,28.966,129.344,28.543,128.287,28.543"/>
		<path class="st16" d="M129.344,29.811c0,0.634-0.423,1.057-1.057,1.057s-1.057-0.423-1.057-1.057s0.423-1.057,1.057-1.057
			C128.921,28.543,129.344,29.177,129.344,29.811"/>
		<path class="st17" d="M128.709,29.811c0,0.211-0.211,0.423-0.423,0.423c-0.211,0-0.423-0.211-0.423-0.423s0.211-0.423,0.423-0.423
			C128.498,29.177,128.709,29.389,128.709,29.811"/>
		<path class="st15" d="M117.716,28.543c-1.057,0-1.902,0.423-2.749,1.057c0.634,0.634,1.691,1.057,2.749,1.057
			s1.902-0.423,2.749-1.057C119.829,28.966,118.773,28.543,117.716,28.543"/>
		<path class="st16" d="M118.984,29.811c0,0.634-0.423,1.057-1.057,1.057s-1.057-0.423-1.057-1.057s0.423-1.057,1.057-1.057
			C118.35,28.543,118.984,29.177,118.984,29.811"/>
		<path class="st17" d="M118.138,29.811c0,0.211-0.211,0.423-0.423,0.423c-0.211,0-0.423-0.211-0.423-0.423s0.211-0.423,0.423-0.423
			C118.138,29.177,118.138,29.389,118.138,29.811"/>
		<path class="st18" d="M127.441,39.537c-2.325,2.749-6.554,2.749-8.669,0C121.31,41.228,124.692,41.228,127.441,39.537"/>
		<polygon class="st4" points="127.441,65.542 132.727,53.069 123.001,61.102 		"/>
		<polygon class="st3" points="123.001,61.102 118.984,63.851 113.487,53.069 114.544,51.589 		"/>
		<polygon class="st3" points="123.213,61.102 127.23,63.851 132.727,53.069 131.67,51.589 		"/>
	</g>
	
		<ellipse transform="matrix(0.9925 -0.1222 0.1222 0.9925 -7.0981 10.2467)" class="st19" cx="80" cy="63" rx="20.682" ry="20.682"/>
	
		<ellipse transform="matrix(0.9925 -0.1222 0.1222 0.9925 -6.7315 10.2242)" class="st20" cx="80" cy="60" rx="20.682" ry="20.682"/>
	<g class="st21">
		<path class="st15" d="M68.303,58.186h8.9v-9.801h5.4v9.801h8.9v5.1h-8.9v9.8h-5.4v-9.8h-8.9V58.186z"/>
	</g>
</g>
</svg>
