<?xml version="1.0" encoding="utf-8"?>
<!-- Generator: Adobe Illustrator 24.3.0, SVG Export Plug-In . SVG Version: 6.00 Build 0)  -->
<svg version="1.1" id="Layer_1" xmlns="http://www.w3.org/2000/svg" xmlns:xlink="http://www.w3.org/1999/xlink" x="0px" y="0px"
	 viewBox="0 0 160 120" style="enable-background:new 0 0 160 120;" xml:space="preserve">
<style type="text/css">
	.st0{fill:#F4BC53;}
	.st1{fill:#BEDAAE;}
	.st2{fill:#AECFE8;}
	.st3{fill:#94B0D9;}
	.st4{fill:#39B8D7;}
	.st5{fill:none;}
	.st6{fill:#EFAF8A;}
	.st7{fill:#54BDD8;}
	.st8{fill:#EFB192;}
	.st9{fill:#F4C8AB;}
	.st10{fill:#DC9E88;}
	.st11{fill:#6E5A4F;}
	.st12{fill:#7C6457;}
	.st13{fill:#60493C;}
	.st14{fill:#FFFFFF;}
	.st15{fill:#2C75B8;}
	.st16{fill:#010101;}
	.st17{fill:#89494B;}
	.st18{fill:#313A57;}
	.st19{fill:#BC8835;}
	.st20{fill:#FFD188;}
	.st21{fill:#FFE0A1;}
</style>
<g>
	<g>
		<path class="st0" d="M79.947,2.193c15.439,0,28,12.561,28,28s-12.561,28-28,28s-28-12.561-28-28S64.507,2.193,79.947,2.193
			 M79.947,0.193c-16.569,0-30,13.431-30,30s13.431,30,30,30s30-13.431,30-30S96.514,0.193,79.947,0.193L79.947,0.193z"/>
	</g>
	<rect x="8.554" y="101.441" class="st0" width="42.645" height="6.733"/>
	<rect x="51.199" y="101.441" class="st0" width="42.645" height="6.733"/>
	<rect x="93.844" y="101.441" class="st0" width="42.645" height="6.733"/>
	<g>
		<path class="st1" d="M104.947,30.122c0,5.714-2,11.142-5.286,15.286c-4.571,5.857-11.714,7.428-19.714,7.428
			s-15.143-1.572-19.714-7.428c-3.286-4.143-5.286-9.572-5.286-15.286c0-13.857,11.142-25,25-25S104.947,16.264,104.947,30.122z"/>
		<path class="st2" d="M79.947,40.979v1.143h-11c-2.143,0,1,1.714,1,3.857l0.143,7.285c3,1.285,6.286,2,9.857,2
			c8,0,15.143-3.857,19.714-9.714c-2.857-2.572-7.714-4.571-13.143-4.571H79.947z"/>
		<path class="st3" d="M60.233,45.407c4.571,5.857,11.714,9.714,19.714,9.714l0,0V40.979h-6.571
			C67.803,40.979,62.948,42.835,60.233,45.407z"/>
		<path class="st4" d="M96.232,47.55"/>
		<line class="st5" x1="86.376" y1="40.979" x2="86.519" y2="40.979"/>
		<path class="st6" d="M79.947,46.407L79.947,46.407L79.947,46.407z"/>
		<path class="st7" d="M63.661,47.55"/>
		<path class="st8" d="M79.947,34.836c0,0.143-5.143,0-5.143,0.143c0,0.571,2.286,1.143,2.286,2c0,2-1.428,3.143-2.429,4h-1.143
			h3.428c1.285,0,3,5.429,3,5.429l0,0c0,0,5.142-5.429,6.429-5.429l0,0c-1-0.857-1.285-2-1.285-4c0-1,0-1.715,0-2.286"/>
		<path class="st9" d="M79.947,14.693c-9,0.286-6.429,9.429-6.429,9.429s-0.857,0.428-0.857,2.143c0.286,4.285,1.714,2.429,2,4.428
			c0.286,2.143,0.857,3,1.285,3.714h-1.143c1.428,1.857,2,3,5.143,3s4.857-1.143,6.286-3l0,0c0.428-0.714,1-1.572,1.285-3.714
			c0.286-1.857,1.715,0,2-4.428c0-1.715-0.857-2.143-0.857-2.143s-1.715-6-1.571-8"/>
		<path class="st10" d="M79.947,35.122c0,0.143-5.143-0.286-5.143-0.143c0,0.571,0,1.143,0,2c0,2-0.286,3.143-1.285,4l0,0
			c1.285,0,6.429,5.429,6.429,5.429"/>
		<path class="st8" d="M79.947,14.693c-9,0.286-8.714,9.429-8.714,9.429s-0.857,0.428-0.857,2.143c0.286,4.285,1.714,2.429,2,4.428
			c0.286,2.143,0.857,3,1.285,3.714l0,0c1.428,1.857,3.143,3,6.286,3V14.693z"/>
		<path class="st11" d="M74.232,23.407c0,0,0,0,0.143,0c0.143,0,0.286,0,0.428-0.143c0.143,0,0.143,0,0.286,0s0.286,0,0.428,0
			c0.286,0,0.571,0,0.857,0s0.571,0,0.857,0c0.143,0,0.286,0,0.428,0c0.143,0,0.286,0,0.286,0c0.143,0,0.428,0,0.428,0
			c0.143,0,0.143,0,0.143,0c0.143,0,0.143,0.143,0.143,0.286s-0.143,0.143-0.286,0.143l0,0c0,0,0,0-0.143,0
			c-0.143,0-0.286,0-0.428,0c-0.143,0-0.143,0-0.286,0s-0.286,0-0.428,0c-0.286,0-0.571,0-0.714,0c-0.286,0-0.571,0-0.714,0
			c-0.143,0-0.286,0-0.428,0c-0.143,0-0.286,0-0.286,0c-0.143,0-0.428,0-0.428,0c-0.143,0-0.143,0-0.143,0
			c-0.143,0-0.286-0.143-0.286-0.286C74.09,23.55,74.09,23.407,74.232,23.407"/>
		<path class="st11" d="M85.661,23.979c0,0,0,0-0.143,0s-0.286,0-0.428,0c-0.143,0-0.143,0-0.286,0c-0.143,0-0.286,0-0.286,0
			c-0.286,0-0.571,0-0.714,0c-0.286,0-0.571,0-0.714,0c-0.143,0-0.286,0-0.428,0c-0.143,0-0.286,0-0.286,0c-0.143,0-0.428,0-0.428,0
			c-0.143,0-0.143,0-0.143,0l0,0c-0.143,0-0.286-0.143-0.286-0.286s0.143-0.143,0.143-0.286c0,0,0,0,0.143,0s0.286,0,0.428,0
			c0.143,0,0.143,0,0.286,0c0.143,0,0.286,0,0.428,0c0.286,0,0.571,0,0.857,0c0.286,0,0.571,0,0.857,0c0.143,0,0.286,0,0.428,0
			c0.143,0,0.286,0,0.286,0c0.143,0,0.428,0,0.428,0.143c0.143,0,0.143,0,0.143,0c0.143,0,0.143,0.143,0.143,0.286
			C85.805,23.836,85.661,23.979,85.661,23.979"/>
		<path class="st12" d="M85.947,12.836c-0.714-0.428-0.714-0.428-1.715-0.714c-0.143-0.571-1.571-1-2.572-1c-0.428,0-1,0-1.571,0
			c-2,0.143-3.857,0.857-5.429,1.857c-2.572,1.857-3.286,5-3.143,6.571c0.143,2,0.286,4.571,0.286,4.571l0.428,3.714
			c0-10.571,0.857-10.571,8-10.571c7.143,0,8,0,8,10.571l0.857-3.714c0,0,0.428-2.572,0.571-4.571
			C89.374,17.836,88.66,14.693,85.947,12.836"/>
		<path class="st13" d="M79.947,11.122c-2,0.143-4.714,0.857-6.286,1.857c-2.429,2-3.143,5-3,6.571c0.143,2,0.571,4.571,0.571,4.571
			l0.857,3.714c0-10.571,0.857-10.571,8-10.571"/>
		<path class="st9" d="M79.947,24.408c0,2-1.285,4-1.285,5.286c0,0.571,1,0.857,1.285,0.857"/>
		<path class="st14" d="M83.519,24.408c-0.714,0-1.285,0.286-1.857,0.714c0.428,0.428,1.143,0.714,1.857,0.714
			s1.285-0.286,1.857-0.714C84.803,24.693,84.232,24.408,83.519,24.408"/>
		<path class="st15" d="M84.232,25.265c0,0.428-0.286,0.714-0.714,0.714s-0.714-0.286-0.714-0.714s0.286-0.714,0.714-0.714
			C83.947,24.408,84.232,24.836,84.232,25.265"/>
		<path class="st16" d="M83.803,25.265c0,0.143-0.143,0.286-0.286,0.286s-0.286-0.143-0.286-0.286s0.143-0.286,0.286-0.286
			C83.66,24.836,83.803,24.979,83.803,25.265"/>
		<path class="st14" d="M76.376,24.408c-0.714,0-1.285,0.286-1.857,0.714c0.428,0.428,1.143,0.714,1.857,0.714
			c0.715,0,1.285-0.286,1.857-0.714C77.803,24.693,77.09,24.408,76.376,24.408"/>
		<path class="st15" d="M77.232,25.265c0,0.428-0.286,0.714-0.714,0.714s-0.714-0.286-0.714-0.714s0.286-0.714,0.714-0.714
			C76.803,24.408,77.232,24.836,77.232,25.265"/>
		<path class="st16" d="M76.661,25.265c0,0.143-0.143,0.286-0.286,0.286c-0.143,0-0.286-0.143-0.286-0.286s0.143-0.286,0.286-0.286
			C76.661,24.836,76.661,24.979,76.661,25.265"/>
		<path class="st17" d="M82.947,31.836c-1.571,1.857-4.428,1.857-5.857,0C78.805,32.978,81.09,32.978,82.947,31.836"/>
		<polygon class="st3" points="82.947,49.407 86.519,40.979 79.947,46.407 		"/>
		<polygon class="st2" points="79.947,46.407 77.232,48.264 73.519,40.979 74.232,39.979 		"/>
		<polygon class="st2" points="80.09,46.407 82.805,48.264 86.519,40.979 85.805,39.979 		"/>
	</g>
	<rect x="34.946" y="67.645" class="st18" width="90.002" height="8"/>
	<rect x="53.697" y="82.645" class="st18" width="52.5" height="6"/>
	<path class="st0" d="M154.355,101.6c-0.117-0.361-0.432-0.626-0.807-0.681l-5.323-0.774l-2.381-4.824
		c-0.168-0.34-0.517-0.557-0.897-0.557s-0.729,0.217-0.897,0.557l-2.381,4.824l-5.324,0.774c-0.376,0.055-0.69,0.32-0.807,0.681
		c-0.117,0.361-0.019,0.76,0.253,1.025l3.852,3.754l-0.909,5.302c-0.064,0.374,0.091,0.755,0.398,0.978
		c0.307,0.223,0.717,0.253,1.053,0.076l4.761-2.503l4.761,2.503c0.336,0.177,0.746,0.147,1.053-0.076
		c0.307-0.223,0.462-0.604,0.398-0.978l-0.909-5.302l3.852-3.754C154.372,102.36,154.471,101.961,154.355,101.6z"/>
	<circle class="st19" cx="144.947" cy="104.807" r="14"/>
	<path class="st0" d="M144.947,91.807c7.168,0,13,5.832,13,13s-5.832,13-13,13s-13-5.832-13-13S137.777,91.807,144.947,91.807
		 M144.947,89.807c-8.284,0-15,6.716-15,15s6.716,15,15,15s15-6.716,15-15S153.23,89.807,144.947,89.807L144.947,89.807z"/>
	<g>
		<path class="st0" d="M150.171,112.349c-0.081,0-0.161-0.02-0.232-0.057l-4.993-2.625l-4.993,2.625
			c-0.071,0.037-0.151,0.057-0.232,0.057c-0.107,0-0.209-0.032-0.295-0.095c-0.152-0.111-0.23-0.303-0.198-0.488l0.953-5.562
			l-4.041-3.938c-0.135-0.131-0.185-0.332-0.126-0.512c0.059-0.18,0.217-0.312,0.404-0.34l5.583-0.812l2.497-5.059
			c0.084-0.17,0.26-0.279,0.448-0.279c0.188,0,0.364,0.109,0.448,0.278l2.497,5.06l5.583,0.812c0.188,0.027,0.346,0.16,0.404,0.34
			s0.009,0.381-0.126,0.512l-4.041,3.938l0.953,5.562c0.032,0.186-0.046,0.377-0.198,0.488
			C150.38,112.317,150.279,112.349,150.171,112.349z"/>
		<path class="st20" d="M144.947,95.765l2.38,4.822l0.233,0.471l0.52,0.076l5.323,0.774l-3.852,3.754l-0.377,0.367l0.089,0.518
			l0.909,5.302l-4.761-2.503l-0.465-0.245l-0.465,0.245l-4.761,2.503l0.909-5.302l0.089-0.518l-0.377-0.367l-3.852-3.754
			l5.324-0.774l0.52-0.076l0.233-0.471L144.947,95.765 M144.947,94.764c-0.38,0-0.729,0.217-0.897,0.557l-2.381,4.824l-5.324,0.774
			c-0.376,0.055-0.69,0.32-0.807,0.681c-0.117,0.361-0.019,0.76,0.253,1.025l3.852,3.754l-0.909,5.302
			c-0.064,0.374,0.091,0.755,0.398,0.978c0.174,0.126,0.381,0.191,0.588,0.191c0.159,0,0.319-0.038,0.465-0.114l4.761-2.503
			l4.761,2.503c0.146,0.077,0.306,0.114,0.465,0.114c0.208,0,0.415-0.064,0.588-0.191c0.307-0.223,0.462-0.604,0.398-0.978
			l-0.909-5.302l3.852-3.754c0.272-0.265,0.37-0.664,0.253-1.025s-0.432-0.626-0.807-0.681l-5.323-0.774l-2.381-4.824
			C145.674,94.981,145.326,94.764,144.947,94.764L144.947,94.764z"/>
	</g>
	<path class="st21" d="M137.835,67.645c5.997,0,10.857-4.861,10.857-10.857c0,5.996,4.86,10.857,10.856,10.857
		c-5.996,0-10.856,4.86-10.856,10.857C148.692,72.505,143.832,67.645,137.835,67.645z"/>
	<path class="st21" d="M122.042,47.55c3.713,0,6.724-3.011,6.724-6.724c0,3.713,3.011,6.724,6.724,6.724
		c-3.713,0-6.724,3.011-6.724,6.724C128.765,50.561,125.755,47.55,122.042,47.55z"/>
	<path class="st21" d="M29.031,54.062c3.266,0,5.915-2.648,5.915-5.914c0,3.266,2.648,5.914,5.914,5.914
		c-3.266,0-5.914,2.649-5.914,5.915C34.946,56.711,32.297,54.062,29.031,54.062z"/>
	<path class="st21" d="M139.031,24.523c3.267,0,5.915-2.648,5.915-5.915c0,3.266,2.651,5.915,5.915,5.915
		c-3.264,0-5.915,2.649-5.915,5.915C144.948,27.172,142.3,24.523,139.031,24.523z"/>
	<path class="st21" d="M19.02,18.428c5.997,0,10.857-4.861,10.857-10.857c0,5.996,4.86,10.857,10.856,10.857
		c-5.996,0-10.856,4.86-10.856,10.857C29.877,23.288,25.017,18.428,19.02,18.428z"/>
	<path class="st21" d="M5.573,77.872c3.713,0,6.724-3.01,6.724-6.724c0,3.713,3.011,6.724,6.724,6.724
		c-3.713,0-6.724,3.011-6.724,6.724C12.296,80.883,9.286,77.872,5.573,77.872z"/>
	<g>
		<path class="st20" d="M144.946,90.807c7.72,0,14,6.28,14,14s-6.28,14-14,14s-14-6.28-14-14S137.227,90.807,144.946,90.807
			 M144.946,89.807c-8.284,0-15,6.717-15,15c0,8.284,6.716,15,15,15s15-6.716,15-15C159.946,96.523,153.23,89.807,144.946,89.807z"
			/>
		<circle class="st0" cx="8.554" cy="104.807" r="8"/>
		<path class="st20" d="M8.554,97.307c4.135,0,7.5,3.365,7.5,7.5c0,4.136-3.365,7.5-7.5,7.5c-4.136,0-7.5-3.364-7.5-7.5
			C1.054,100.672,4.418,97.307,8.554,97.307 M8.554,96.307c-4.695,0-8.5,3.806-8.5,8.5s3.805,8.5,8.5,8.5c4.694,0,8.5-3.806,8.5-8.5
			S13.248,96.307,8.554,96.307z"/>
		<circle class="st0" cx="49.753" cy="104.807" r="8"/>
		<path class="st20" d="M49.753,97.307c4.136,0,7.5,3.365,7.5,7.5c0,4.136-3.364,7.5-7.5,7.5c-4.135,0-7.5-3.364-7.5-7.5
			C42.253,100.672,45.618,97.307,49.753,97.307 M49.753,96.307c-4.694,0-8.5,3.806-8.5,8.5s3.806,8.5,8.5,8.5s8.5-3.806,8.5-8.5
			S54.448,96.307,49.753,96.307z"/>
		<circle class="st0" cx="95.953" cy="104.807" r="8"/>
		<path class="st20" d="M95.953,97.307c4.136,0,7.5,3.365,7.5,7.5c0,4.136-3.364,7.5-7.5,7.5c-4.135,0-7.5-3.364-7.5-7.5
			C88.453,100.672,91.818,97.307,95.953,97.307 M95.953,96.307c-4.694,0-8.5,3.806-8.5,8.5s3.806,8.5,8.5,8.5s8.5-3.806,8.5-8.5
			S100.647,96.307,95.953,96.307z"/>
	</g>
</g>
</svg>
