<?xml version="1.0" encoding="utf-8"?>
<!-- Generator: Adobe Illustrator 24.3.0, SVG Export Plug-In . SVG Version: 6.00 Build 0)  -->
<svg version="1.1" id="Layer_1" xmlns="http://www.w3.org/2000/svg" xmlns:xlink="http://www.w3.org/1999/xlink" x="0px" y="0px"
	 viewBox="0 0 160 120" style="enable-background:new 0 0 160 120;" xml:space="preserve">
<style type="text/css">
	.st0{fill:#17232B;}
	.st1{fill:#213643;}
	.st2{fill:#2E4757;}
	.st3{fill:#E4E4E4;}
	.st4{fill:#CAA450;}
	.st5{fill:#FACB64;}
	.st6{fill:#2A1309;}
	.st7{fill:#48291A;}
	.st8{fill:#73472E;}
	.st9{fill:#FBB88D;}
	.st10{fill:#FCCFB3;}
	.st11{fill:#FEEEE3;}
	.st12{fill:url(#SVGID_1_);}
	.st13{fill:#FFFFFF;}
</style>
<g>
	<g>
		<g>
			<g>
				<path class="st0" d="M119.6,83.621l-0.813-6.732l-19.258,1.28c-0.245-0.01-0.477-0.052-0.698-0.124l-0.182,1.726
					c0.415,0.304,0.857,2.805,1.394,2.826L119.6,83.621z"/>
				<path class="st0" d="M105.548,100.072l25.807-3.803c0.074,0.05,14.525,7.665,14.605,7.698l10.559-1.829
					c1.113,0.109,2.1-0.832,2.192-2.103l1.267-44.951c0.257-4.886-1.769-6.676-3.234-6.69c-0.147-0.002-0.335,0.006-0.55,0.042
					c-0.2,0.035-0.422,0.091-0.664,0.193c-0.905,0.375-4.232,0.933-4.345,1.387l-26.787,29.522l-0.102,2.084L105.548,100.072
					L105.548,100.072z"/>
			</g>
			<path d="M124.027,43.147c-0.984,0.168-1.593,1.309-1.749,2.51l-0.114,3.489l1.202-0.019l0.358-2.865
				c0.157-1.141,0.735-1.875,1.67-2.034c0.114-0.019,0.231-0.03,0.351-0.032l9.037-0.155c0.198,0.001,0.382,0.028,0.551,0.086
				c-0.38-0.517-0.973-1.193-1.628-1.182l-9.002,0.154c-0.123,0.002-0.233,0.373-0.346,0.391 M123.424,40.901l12.355-0.205
				c1.029-0.028,2.437,1.145,2.428,3.717l-0.003,4.478l1.653-0.036l0.044-3.84c0.014-3.971-2.886-4.411-3.669-4.389l-12.796,0.273
				C123.431,40.898,123.426,40.901,123.424,40.901"/>
			<path class="st0" d="M122.739,40.928c-1.113,0.187-2.084,1.703-2.283,2.968l-0.738,5.289l2.441-0.038l0.43-3.504
				c0.159-1.2,0.778-1.983,1.764-2.151c0.116-0.018,0.234-0.031,0.358-0.034l9.001-0.153c0.657-0.013,1.234,0.307,1.616,0.823
				c0.313,0.425,0.497,0.983,0.478,1.594l-0.04,3.202l2.746-0.046l0.007-4.478c0.009-2.571-1.714-3.729-2.745-3.704l-12.351,0.205
				l-0.489,0.007C122.868,40.906,122.806,40.914,122.739,40.928"/>
			<path class="st1" d="M98.812,78.038l-1.594,20.725c-0.073,1.12,0.706,2.088,1.729,2.15l0.609-0.077l5.992-0.763l42.334-5.375
				l1.481-14.426c-0.329,1.285-1.477,2.313-2.668,2.517c-0.172,0.028-0.347,0.04-0.515,0.031l-21.885-1.201l-0.006,0.13
				c-0.046,0.949-0.683,1.707-1.48,1.846c-0.116,0.016-0.231,0.025-0.35,0.016l-2.351-0.141c-0.109-0.01-0.218-0.029-0.323-0.057
				l-0.534-0.034c-0.952-0.058-1.691-0.992-1.64-2.077l0.006-0.052l-17.522-0.964c-0.541-0.02-1.033-0.211-1.447-0.516l0.182-1.726
				C98.823,78.042,98.817,78.04,98.812,78.038"/>
			<g>
				<path class="st2" d="M98.808,78.04c0.006,0.001,0.013,0.005,0.019,0.005c0.219,0.073,0.455,0.115,0.697,0.124l18.189,1.002
					l0.114-2.358c0.045-0.947,0.681-1.707,1.479-1.842c0.116-0.017,0.231-0.026,0.352-0.019l2.346,0.142
					c0.112,0.009,0.223,0.028,0.327,0.056l0.531,0.033c0.953,0.058,1.693,0.994,1.641,2.077l-0.11,2.276l21.214,1.169
					c0.171,0.007,0.344-0.007,0.514-0.035c1.372-0.232,2.678-1.557,2.759-3.105l1.275-11.17c0.076-1.488,1.1-9.4,1.965-12.886
					c0.114-0.459,0.222-0.837,0.328-1.117c1.015-2.428,2.173-3.39,3.081-3.765l0.943-0.225c0,0-53.201,0.959-53.382,1.054
					c-0.155,0.078-0.315,0.179-0.475,0.307c-1.253,0.981-2.697,3.444-3.232,7.842c-0.076,0.63-0.134,1.3-0.17,2.01
					c0.034-0.709,0.092-1.38,0.17-2.01c-0.024,0.082-0.044,0.171-0.048,0.262l-2.457,17.135
					C96.811,76.415,97.634,77.644,98.808,78.04z"/>
			</g>
			<polyline class="st3" points="123.536,79.489 123.437,81.571 124.296,81.62 124.399,79.538 123.536,79.489 			"/>
			<path class="st4" d="M119.784,83.416c0.102,0.025,0.214,0.046,0.325,0.055l2.35,0.141c0.119,0.009,0.236,0.005,0.35-0.015
				c0.799-0.139,1.437-0.898,1.482-1.845l0.005-0.131l0,0l0.101-2.085l0.107-2.274c0.055-1.084-0.686-2.019-1.64-2.077l-0.53-0.031
				c0.791,0.222,1.361,1.063,1.316,2.02l-0.114,2.315l-0.099,2.082l-0.005,0.092c-0.046,0.948-0.684,1.706-1.48,1.843
				c-0.117,0.019-0.232,0.024-0.351,0.019L119.784,83.416z"/>
			<path class="st5" d="M119.307,74.972c-0.799,0.136-1.435,0.895-1.476,1.839l-0.113,2.355l-0.099,2.082l-0.002,0.052
				c-0.054,1.083,0.684,2.019,1.638,2.076l0.533,0.034l1.814,0.114c0.12,0.005,0.236,0,0.352-0.02
				c0.795-0.136,1.434-0.895,1.476-1.844l0.005-0.091l0.102-2.08l0.112-2.317c0.046-0.955-0.524-1.797-1.316-2.019
				c-0.101-0.028-0.214-0.046-0.323-0.055l-2.35-0.145C119.538,74.946,119.42,74.951,119.307,74.972"/>
			<g>
				<path class="st1" d="M138.739,86.974c1.607-0.558,4.078-0.169,5.489,0.86l1.486,1.082c1.411,1.03,3.202-4.872,3.064-2.973
					l-1.308,15.914c-0.141,1.899-1.627,3.331-3.303,3.182l-45.22-4.128c0,0,0.709-0.38,2.314-0.939L138.739,86.974z"/>
			</g>
		</g>
	</g>
	<g>
		<g>
			<g>
				<path class="st6" d="M56.405,82.138c0.505-0.02,0.921-2.454,1.311-2.75l-0.172-1.68c-0.208,0.07-0.426,0.111-0.657,0.121
					l-18.116-1.246l-0.765,6.551L56.405,82.138z"/>
				<path class="st6" d="M51.225,99.143l1.967-19.954l-0.096-2.028L8.292,50.433c-0.106-0.442-3.236-0.985-4.087-1.35
					c-0.227-0.099-0.436-0.153-0.624-0.188c-0.203-0.035-0.379-0.042-0.517-0.041c-1.378,0.014-3.284,1.756-3.042,6.51l1.192,43.742
					c0.087,1.237,1.015,2.153,2.062,2.047l9.933,1.78c0.075-0.031,13.67-7.442,13.739-7.491L51.225,99.143L51.225,99.143z"/>
			</g>
			<path d="M34.532,44.083c-0.106-0.018-0.21-0.379-0.325-0.381l-8.468-0.15c-0.617-0.011-1.174,0.647-1.532,1.15
				c0.159-0.057,0.333-0.082,0.519-0.084l8.501,0.151c0.113,0.002,0.223,0.013,0.33,0.031c0.879,0.155,1.423,0.869,1.571,1.98
				l0.336,2.788l1.131,0.018l-0.108-3.395c-0.147-1.169-0.72-2.279-1.646-2.442 M35.409,41.563c-0.002,0-0.006-0.003-0.01-0.002
				l-12.038-0.266c-0.736-0.021-3.465,0.406-3.452,4.271l0.041,3.737l1.555,0.035l-0.003-4.358
				c-0.009-2.503,1.315-3.645,2.284-3.617L35.409,41.563"/>
			<path class="st0" d="M36.053,41.589c-0.063-0.013-0.121-0.021-0.184-0.019l-0.46-0.007L23.79,41.364
				c-0.97-0.025-2.59,1.103-2.582,3.604l0.007,4.357l2.584,0.045l-0.037-3.116c-0.017-0.594,0.155-1.137,0.45-1.551
				c0.359-0.503,0.902-0.814,1.521-0.801l8.468,0.149c0.116,0.002,0.227,0.015,0.336,0.033c0.927,0.163,1.51,0.926,1.659,2.094
				l0.404,3.41l2.296,0.037L38.2,44.477C38.014,43.246,37.1,41.771,36.053,41.589"/>
			<path class="st7" d="M57.562,77.702c-0.004,0.002-0.01,0.004-0.018,0.006l0.172,1.68c-0.389,0.296-0.851,0.482-1.361,0.502
				L13,82.354c-0.158,0.008-0.323-0.003-0.484-0.031c-1.12-0.198-2.2-1.2-2.51-2.45l1.393,14.038l39.826,5.231l5.68,0.817
				l0.573,0.075c0.963-0.06,1.696-1.003,1.627-2.092L57.562,77.702"/>
			<g>
				<path class="st8" d="M59.381,74.751l-2.311-16.674c-0.004-0.089-0.022-0.175-0.045-0.255c0.073,0.613,0.127,1.265,0.16,1.956
					c-0.034-0.69-0.088-1.343-0.16-1.956c-0.503-4.28-1.861-6.677-3.04-7.631c-0.151-0.125-0.301-0.223-0.447-0.299
					c-0.17-0.093-50.219-1.026-50.219-1.026l0.887,0.219c0.854,0.366,1.944,1.301,2.898,3.664c0.1,0.273,0.202,0.641,0.308,1.087
					c0.814,3.392,1.777,11.092,1.849,12.54l1.199,10.869c0.076,1.506,1.305,2.795,2.596,3.021c0.159,0.028,0.323,0.042,0.483,0.034
					l43.353-2.469c0.228-0.009,0.45-0.05,0.656-0.121c0.006,0,0.012-0.004,0.018-0.005C58.67,77.318,59.445,76.122,59.381,74.751z"
					/>
			</g>
			<path class="st4" d="M25.104,83.533c-0.112,0.005-0.22,0-0.33-0.018c-0.749-0.134-1.35-0.871-1.393-1.794l-0.004-0.09
				l-0.093-2.026l-0.107-2.253c-0.042-0.932,0.494-1.75,1.238-1.966l-0.499,0.031c-0.897,0.057-1.594,0.967-1.542,2.021l0.101,2.213
				l0.095,2.029l0,0l0.004,0.128c0.042,0.921,0.642,1.659,1.394,1.795c0.107,0.02,0.217,0.023,0.329,0.015l2.21-0.137
				c0.104-0.009,0.209-0.029,0.305-0.054L25.104,83.533z"/>
			<path class="st5" d="M27.261,75.211c-0.107-0.02-0.218-0.026-0.331-0.019l-2.211,0.142c-0.103,0.009-0.209,0.026-0.304,0.054
				c-0.746,0.217-1.281,1.035-1.238,1.965l0.105,2.255l0.096,2.024l0.004,0.089c0.04,0.924,0.641,1.662,1.389,1.794
				c0.109,0.02,0.219,0.025,0.331,0.02l1.707-0.111l0.501-0.033c0.897-0.056,1.592-0.967,1.541-2.021l-0.002-0.051l-0.093-2.026
				l-0.106-2.292C28.612,76.082,28.013,75.343,27.261,75.211"/>
			<g>
				<path class="st7" d="M55.258,99.046c1.509,0.544,2.22,0.987,2.22,0.987l-42.584,3.943c-1.577,0.145-2.975-1.249-3.107-3.096
					l-1.231-15.486c-0.13-1.848,1.555,3.895,2.883,2.893l1.398-1.053c1.328-1.002,3.653-1.38,5.164-0.837L55.258,99.046z"/>
			</g>
			<path class="st4" d="M47.524,82.291c-0.104,0.005-0.205,0-0.308-0.017c-0.698-0.124-1.258-0.812-1.298-1.672l-0.004-0.084
				l-0.087-1.888l-0.1-2.099c-0.039-0.868,0.461-1.631,1.154-1.832l-0.465,0.029c-0.836,0.053-1.486,0.901-1.438,1.884l0.094,2.063
				l0.089,1.891l0,0l0.004,0.119c0.039,0.858,0.598,1.547,1.299,1.673c0.1,0.018,0.202,0.022,0.307,0.014l2.06-0.128
				c0.097-0.009,0.195-0.027,0.285-0.05L47.524,82.291z"/>
			<path class="st5" d="M49.535,74.534c-0.1-0.019-0.203-0.024-0.308-0.018l-2.061,0.132c-0.096,0.008-0.195,0.024-0.283,0.05
				c-0.695,0.202-1.194,0.965-1.154,1.832l0.098,2.101l0.089,1.887l0.004,0.083c0.037,0.861,0.597,1.549,1.294,1.672
				c0.102,0.018,0.204,0.023,0.309,0.018l1.591-0.103l0.467-0.031c0.836-0.052,1.484-0.901,1.436-1.883l-0.002-0.048l-0.087-1.889
				l-0.099-2.136C50.794,75.346,50.236,74.657,49.535,74.534"/>
		</g>
	</g>
	<g>
		<path class="st9" d="M84.849,21.029c-3.228-0.545-5.103-8.651-3.896,0.019c0.818,5.875,4.012,11.798,5.256,16.715
			c1.138,4.49,1.32,7.977,0.672,8.178c-1.848,0.575-11.292,15.849-18.14,12.1c-0.761-0.414-3.481-2.661-4.819-5.955
			c-0.496-1.217-0.792-3.337-2.108-5.339c-2.082-3.166-5.556-6.598-7.607-9.924c-0.924-1.502-1.564-3.016-2.127-4.219
			c-0.99-2.116-1.515-3.492-1.323-3.72c2.739-3.208,8.949,6.617,8.566,5.078c-1.269-5.083-2.736-12.433-3.293-18.275
			c-0.465-4.847-0.068-8.761,0.821-9.169c2.21-1.012,2.51,7.913,3.431,13.057c0.546,3.054,1.675,4.942,1.974,4.66
			c0.593-0.563-1.07-6.279-0.923-12.362c0.131-5.516,2.043-11.156,2.659-11.407c0.196-0.079,1.098-0.535,1.822,1.17
			c1.065,2.495-0.555,7.379-0.16,12.237c0.372,4.564,1.046,6.721,1.525,6.601c0.668-0.159,0.463-3.249,1.085-8.426
			c0.787-6.569,9.625-2.6,10.357-2.205c0.286,0.154,0.843,0.398,0.176,1.865c-1.971,1.924-5.749-1.455-6.059,0.818
			c-0.458,4.692,0.173,7.164,0.971,7.136c0.827-0.031,1.402-2.727,3.064-5.406c2.931-4.723,6.796-1.58,10.383,4.752
			C88.167,20.522,85.356,21.114,84.849,21.029z"/>
		<path class="st10" d="M84.206,19.735c-1.408-0.798-2.461-3.939-2.918-1.968c0,0,0.203,0.31,0.581,3.019
			c0.818,5.874,3.956,11.919,5.2,16.837c1.137,4.489,0.46,8.115-0.188,8.316c-1.848,0.575-11.292,15.849-18.14,12.1
			c-2.038-1.115-7.007-18.702-7.517-20.348c-2.231-7.179-6.177-32.022-3.747-31.371c1.883,0.507,2.569,7.895,3.489,13.035
			c0.547,3.058,1.585,5.219,1.884,4.937c0.593-0.561-0.902-6.508-0.758-12.591c0.132-5.518,1.9-11.238,2.516-11.492
			c0.196-0.079,1.324-0.412,2.049,1.292c1.064,2.494-0.67,7.448-0.275,12.305c0.372,4.564,1.414,8.737,1.892,8.622
			c0.667-0.164,0.267-4.959,0.886-10.136c0.788-6.57,8.661-2.492,9.393-2.099c0.286,0.156,0.95,1.337-0.317,2.217
			c-2.569,1.232-3.273-0.352-4.886-0.112c-0.46,4.693-0.186,8.652,0.611,8.624c0.916-0.034,1.734-3.623,4.125-6.659
			c2.535-3.218,5.971-0.052,8.845,5.174C87.374,20.181,85.098,20.298,84.206,19.735z"/>
		<path class="st11" d="M62.844,3.087c0.282,0.327,1.313,0.516,2.154-0.548c0.268-0.337,0.904-1.99,0.618-2.317
			c-0.283-0.326-1.402-0.27-1.731,0.011C63.562,0.52,62.56,2.763,62.844,3.087z"/>
		<path class="st11" d="M55.855,9.832c0.334,0.218,1.298,0.123,1.774-1.031c0.152-0.37,0.295-1.996-0.039-2.214
			c-0.334-0.22-1.313,0.112-1.533,0.449C55.84,7.371,55.521,9.614,55.855,9.832z"/>
		
			<linearGradient id="SVGID_1_" gradientUnits="userSpaceOnUse" x1="66.149" y1="2.3065" x2="99.5638" y2="63.4464" gradientTransform="matrix(0.8775 -0.4796 -0.4796 -0.8775 22.1944 153.7477)">
			<stop  offset="0" style="stop-color:#AECFE8;stop-opacity:0"/>
			<stop  offset="0.2577" style="stop-color:#AECFE8;stop-opacity:0.9976"/>
			<stop  offset="0.3626" style="stop-color:#AECFE8;stop-opacity:0.9979"/>
			<stop  offset="1" style="stop-color:#AECFE8"/>
		</linearGradient>
		<path class="st12" d="M60.987,120c1.678-44.635,1.42-38.828,1.414-39.198c-0.148-8.227,0.225-16.411,1.173-18.492
			c6.367-13.978,24.789-14.211,26.506-8.403c0.374,1.26,5.657,60.805,7.201,66.093"/>
		<path class="st13" d="M63.574,62.31c6.367-13.978,24.789-14.211,26.506-8.403c0.075,0.25,0.193,0.631,0.347,1.115
			c0.71-2.775-0.725-8.715-4.142-10.861c-9.848-6.184-20.324,4.754-22.01,6.513c-1.503,1.571-3.274,9.636-1.218,13.673
			C63.204,63.442,63.375,62.743,63.574,62.31z"/>
	</g>
</g>
</svg>
