<?xml version="1.0" encoding="utf-8"?>
<!-- Generator: Adobe Illustrator 24.3.0, SVG Export Plug-In . SVG Version: 6.00 Build 0)  -->
<svg version="1.1" id="Layer_1" xmlns="http://www.w3.org/2000/svg" xmlns:xlink="http://www.w3.org/1999/xlink" x="0px" y="0px"
	 viewBox="0 0 160 120" style="enable-background:new 0 0 160 120;" xml:space="preserve">
<style type="text/css">
	.st0{fill:#F4BC53;}
	.st1{opacity:0.3;fill:#FFFFFF;enable-background:new    ;}
	.st2{fill:#E9E8E8;}
	.st3{fill:#DF5B41;}
	.st4{fill:#2C669E;}
	.st5{opacity:0.1;fill:#010101;enable-background:new    ;}
	.st6{fill:#313A57;}
	.st7{opacity:0.2;fill:#FFFFFF;enable-background:new    ;}
	.st8{fill:none;}
	.st9{fill:#BEDAAE;}
	.st10{fill:#AECFE8;}
	.st11{fill:#94B0D9;}
	.st12{fill:#39B8D7;}
	.st13{fill:#EFAF8A;}
	.st14{fill:#54BDD8;}
	.st15{fill:#EFB192;}
	.st16{fill:#F4C8AB;}
	.st17{fill:#DC9E88;}
	.st18{fill:#6E5A4F;}
	.st19{fill:#7C6457;}
	.st20{fill:#60493C;}
	.st21{fill:#FFFFFF;}
	.st22{fill:#2C75B8;}
	.st23{fill:#010101;}
	.st24{fill:#89494B;}
	.st25{fill:#EAEAEA;}
	.st26{opacity:0.4;fill:#5897D1;enable-background:new    ;}
	.st27{opacity:0.7;fill:#5897D1;enable-background:new    ;}
	.st28{fill:#5897D1;}
</style>
<g>
	<g>
		<path class="st0" d="M30.492,89.312c6.424,6.283,0.057,25.266-5.248,30.688c-5.423-5.305-12.204-24.142-5.921-30.565"/>
		<path class="st1" d="M29.36,88.62c5.128,5.02,0.044,20.176-4.191,24.507c-4.33-4.236-9.745-19.278-4.728-24.408"/>
		<path class="st2" d="M23.961,3.085c6.041,4.486,10.482,6.845,13.666,12.943c10.341,19.788,7.134,46.477-0.012,69.811
			c-0.63,2.057-2.84,3.49-3.524,5.486c-1.159,0.858-3.246-0.096-9.161-0.031c-5.917,0.066-7.671,1.369-8.849,0.539
			c-0.728-1.982-3.28-3.671-3.956-5.715C4.471,62.946,0.677,36.333,10.58,16.325C13.633,10.157,18.02,7.704,23.961,3.085z"/>
		<path class="st3" d="M10.58,16.325c1.508,0.821,6.092,3.801,13.566,3.718c7.475-0.082,11.992-3.161,13.48-4.015
			C34.443,9.93,29.968,4.486,23.928,0C17.985,4.619,13.633,10.157,10.58,16.325"/>
		<circle class="st3" cx="24.365" cy="39.862" r="12.341"/>
		<circle class="st4" cx="24.364" cy="39.862" r="9.608"/>
		<path class="st5" d="M24.944,92.726c2.624-0.229,8.026-0.057,9.312-2.336c2.091-3.705,2.449-7.576,3.783-12.062
			C45.665,52.698,40.966,16.873,23.928,0c6.04,4.486,10.516,9.93,13.699,16.028c10.341,19.788,7.134,46.477-0.012,69.811
			c-0.63,2.057-1.29,4.09-1.975,6.088"/>
		<path class="st6" d="M24.963,94.38c-5.916,0.064-9.552-1.387-10.729-2.219c-0.729-1.982-1.434-3.999-2.109-6.043
			c1.058,1.904,5.869,4.251,12.792,4.174c6.925-0.074,11.684-2.527,12.698-4.453c-0.63,2.057-1.29,4.09-1.975,6.088
			C34.481,92.783,30.879,94.315,24.963,94.38z"/>
		<path class="st3" d="M15.004,88.39c-2.081-4.922-4.887-16.666-5.53-22.157c-2.873,2.937-15.202,14.784-6.29,38.7
			C4.109,100.642,12.404,91.046,15.004,88.39z"/>
		<path class="st3" d="M24.616,62.856c1.283-0.016,6.689,15.396,0.489,44.561C18.268,78.397,23.335,62.868,24.616,62.856z"/>
		<path class="st3" d="M34.787,88.171c1.974-4.965,4.52-16.768,5.043-22.272c2.938,2.874,15.521,14.448,7.139,38.555
			C45.947,100.183,37.444,90.771,34.787,88.171z"/>
		<path class="st5" d="M24.616,62.856c1.283-0.016,6.689,15.396,0.489,44.561"/>
		<path class="st7" d="M27.739,32.631c0.563,0.911,0.991,1.93,1.239,3.036c1.172,5.261-2.121,10.474-7.363,11.686
			c0.885,0.324,1.84,0.498,2.838,0.487c4.404-0.047,7.938-3.66,7.89-8.065C32.308,36.605,30.431,33.888,27.739,32.631z"/>
		<circle class="st8" cx="24.365" cy="39.862" r="7.979"/>
	</g>
	<g>
		<path class="st9" d="M159.999,59.911c0,7.122-2.493,13.887-6.588,19.051c-5.697,7.3-14.6,9.258-24.57,9.258
			c-9.971,0-18.873-1.959-24.57-9.258c-4.095-5.164-6.588-11.93-6.588-19.051c0-17.27,13.887-31.158,31.158-31.158
			S159.999,42.64,159.999,59.911z"/>
		<path class="st10" d="M128.842,73.442v1.424h-13.709c-2.671,0,1.246,2.136,1.246,4.807l0.178,9.08
			c3.739,1.602,7.834,2.493,12.285,2.493c9.97,0,18.873-4.807,24.57-12.107c-3.561-3.205-9.614-5.697-16.38-5.697H128.842z"/>
		<path class="st11" d="M104.272,78.961c5.697,7.3,14.599,12.107,24.57,12.107l0,0V73.442h-8.19
			C113.708,73.442,107.655,75.756,104.272,78.961z"/>
		<path class="st12" d="M149.138,81.632"/>
		<line class="st8" x1="136.854" y1="73.442" x2="137.032" y2="73.442"/>
		<path class="st13" d="M128.842,80.207L128.842,80.207L128.842,80.207z"/>
		<path class="st14" d="M108.545,81.632"/>
		<path class="st15" d="M128.842,65.786c0,0.178-6.41,0-6.41,0.178c0,0.712,2.849,1.424,2.849,2.493c0,2.493-1.78,3.917-3.027,4.985
			h-1.424h4.273c1.602,0,3.739,6.766,3.739,6.766l0,0c0,0,6.409-6.766,8.012-6.766l0,0c-1.246-1.068-1.602-2.493-1.602-4.985
			c0-1.246,0-2.137,0-2.849"/>
		<path class="st16" d="M128.842,40.682c-11.217,0.356-8.012,11.751-8.012,11.751s-1.068,0.534-1.068,2.671
			c0.356,5.341,2.136,3.027,2.493,5.519c0.356,2.671,1.068,3.739,1.602,4.629h-1.424c1.78,2.314,2.493,3.739,6.41,3.739
			c3.917,0,6.053-1.424,7.834-3.739l0,0c0.534-0.89,1.246-1.959,1.602-4.629c0.356-2.314,2.137,0,2.493-5.519
			c0-2.137-1.068-2.671-1.068-2.671s-2.137-7.478-1.958-9.971"/>
		<path class="st17" d="M128.842,66.142c0,0.178-6.41-0.356-6.41-0.178c0,0.712,0,1.424,0,2.493c0,2.493-0.356,3.917-1.602,4.985
			l0,0c1.602,0,8.012,6.766,8.012,6.766"/>
		<path class="st15" d="M128.842,40.682c-11.217,0.356-10.861,11.751-10.861,11.751s-1.068,0.534-1.068,2.671
			c0.356,5.341,2.136,3.027,2.493,5.519c0.356,2.671,1.068,3.739,1.602,4.629l0,0c1.78,2.314,3.917,3.739,7.834,3.739V40.682z"/>
		<path class="st18" d="M121.72,51.542c0,0,0,0,0.178,0s0.356,0,0.534-0.178c0.178,0,0.178,0,0.356,0c0.178,0,0.356,0,0.534,0
			c0.356,0,0.712,0,1.068,0c0.356,0,0.712,0,1.068,0c0.178,0,0.356,0,0.534,0s0.356,0,0.356,0c0.178,0,0.534,0,0.534,0
			c0.178,0,0.178,0,0.178,0c0.178,0,0.178,0.178,0.178,0.356s-0.178,0.178-0.356,0.178l0,0c0,0,0,0-0.178,0s-0.356,0-0.534,0
			s-0.178,0-0.356,0c-0.178,0-0.356,0-0.534,0c-0.356,0-0.712,0-0.89,0c-0.356,0-0.712,0-0.89,0c-0.178,0-0.356,0-0.534,0
			s-0.356,0-0.356,0c-0.178,0-0.534,0-0.534,0c-0.178,0-0.178,0-0.178,0c-0.178,0-0.356-0.178-0.356-0.356
			C121.542,51.72,121.542,51.542,121.72,51.542"/>
		<path class="st18" d="M135.964,52.255c0,0,0,0-0.178,0c-0.178,0-0.356,0-0.534,0c-0.178,0-0.178,0-0.356,0
			c-0.178,0-0.356,0-0.356,0c-0.356,0-0.712,0-0.89,0c-0.356,0-0.712,0-0.89,0c-0.178,0-0.356,0-0.534,0c-0.178,0-0.356,0-0.356,0
			c-0.178,0-0.534,0-0.534,0c-0.178,0-0.178,0-0.178,0l0,0c-0.178,0-0.356-0.178-0.356-0.356s0.178-0.178,0.178-0.356
			c0,0,0,0,0.178,0c0.178,0,0.356,0,0.534,0c0.178,0,0.178,0,0.356,0s0.356,0,0.534,0c0.356,0,0.712,0,1.068,0s0.712,0,1.068,0
			c0.178,0,0.356,0,0.534,0c0.178,0,0.356,0,0.356,0c0.178,0,0.534,0,0.534,0.178c0.178,0,0.178,0,0.178,0
			c0.178,0,0.178,0.178,0.178,0.356C136.142,52.077,135.964,52.255,135.964,52.255"/>
		<path class="st19" d="M136.32,38.367c-0.89-0.534-0.89-0.534-2.137-0.89c-0.178-0.712-1.958-1.246-3.205-1.246
			c-0.534,0-1.246,0-1.958,0c-2.493,0.178-4.807,1.068-6.766,2.315c-3.205,2.314-4.095,6.231-3.917,8.19
			c0.178,2.493,0.356,5.697,0.356,5.697l0.534,4.629c0-13.175,1.068-13.175,9.971-13.175c8.902,0,9.97,0,9.97,13.175l1.068-4.629
			c0,0,0.534-3.205,0.712-5.697C140.592,44.599,139.702,40.682,136.32,38.367"/>
		<path class="st20" d="M128.842,36.231c-2.493,0.178-5.875,1.068-7.834,2.315c-3.027,2.493-3.917,6.231-3.739,8.19
			c0.178,2.493,0.712,5.697,0.712,5.697l1.068,4.629c0-13.175,1.068-13.175,9.97-13.175"/>
		<path class="st16" d="M128.842,52.789c0,2.493-1.602,4.985-1.602,6.588c0,0.712,1.246,1.068,1.602,1.068"/>
		<path class="st21" d="M133.293,52.789c-0.89,0-1.602,0.356-2.315,0.89c0.534,0.534,1.424,0.89,2.315,0.89
			c0.89,0,1.602-0.356,2.314-0.89C134.895,53.145,134.183,52.789,133.293,52.789"/>
		<path class="st22" d="M134.183,53.857c0,0.534-0.356,0.89-0.89,0.89c-0.534,0-0.89-0.356-0.89-0.89s0.356-0.89,0.89-0.89
			C133.827,52.789,134.183,53.323,134.183,53.857"/>
		<path class="st23" d="M133.649,53.857c0,0.178-0.178,0.356-0.356,0.356c-0.178,0-0.356-0.178-0.356-0.356s0.178-0.356,0.356-0.356
			C133.471,53.323,133.649,53.501,133.649,53.857"/>
		<path class="st21" d="M124.391,52.789c-0.89,0-1.602,0.356-2.315,0.89c0.534,0.534,1.424,0.89,2.315,0.89s1.602-0.356,2.315-0.89
			C126.171,53.145,125.281,52.789,124.391,52.789"/>
		<path class="st22" d="M125.459,53.857c0,0.534-0.356,0.89-0.89,0.89c-0.534,0-0.89-0.356-0.89-0.89s0.356-0.89,0.89-0.89
			C124.925,52.789,125.459,53.323,125.459,53.857"/>
		<path class="st23" d="M124.747,53.857c0,0.178-0.178,0.356-0.356,0.356c-0.178,0-0.356-0.178-0.356-0.356s0.178-0.356,0.356-0.356
			C124.747,53.323,124.747,53.501,124.747,53.857"/>
		<path class="st24" d="M132.581,62.047c-1.958,2.315-5.519,2.315-7.3,0C127.418,63.471,130.266,63.471,132.581,62.047"/>
		<polygon class="st11" points="132.581,83.946 137.032,73.442 128.842,80.207 		"/>
		<polygon class="st10" points="128.842,80.207 125.459,82.522 120.83,73.442 121.72,72.196 		"/>
		<polygon class="st10" points="129.02,80.207 132.403,82.522 137.032,73.442 136.142,72.196 		"/>
	</g>
	<path class="st25" d="M118.375,30.21c0-16.016-10.337-29-35-29s-35,12.984-35,29s10.337,29,35,29c1.191,0,2.338-0.039,3.463-0.099
		c0.88,1.523,1.888,2.816,2.94,3.971c1.675,1.813,3.494,3.281,5.4,4.507c1.907,1.218,3.912,2.191,5.986,2.846
		c2.061,0.646,4.248,0.974,6.211,0.646c-1.719-1.001-2.926-2.42-3.902-3.914c-0.968-1.504-1.683-3.121-2.187-4.744
		c-0.5-1.621-0.785-3.26-0.807-4.77c-0.006-0.406,0.014-0.8,0.052-1.181C112.93,51.844,118.375,41.827,118.375,30.21z"/>
	<circle class="st26" cx="64.441" cy="30.254" r="6.5"/>
	<circle class="st27" cx="82.397" cy="30.254" r="7"/>
	<circle class="st28" cx="100.352" cy="30.254" r="7.478"/>
</g>
</svg>
